<?xml version="1.0" standalone="no"?><svg xmlns="http://www.w3.org/2000/svg" viewBox="0 0 1440 320"><path fill="#F99C80" fill-opacity="0.8" d="M0,192L26.7,170.7C53.3,149,107,107,160,117.3C213.3,128,267,192,320,208C373.3,224,427,192,480,186.7C533.3,181,587,203,640,224C693.3,245,747,267,800,229.3C853.3,192,907,96,960,64C1013.3,32,1067,64,1120,90.7C1173.3,117,1227,139,1280,176C1333.3,213,1387,267,1413,293.3L1440,320L1440,320L1413.3,320C1386.7,320,1333,320,1280,320C1226.7,320,1173,320,1120,320C1066.7,320,1013,320,960,320C906.7,320,853,320,800,320C746.7,320,693,320,640,320C586.7,320,533,320,480,320C426.7,320,373,320,320,320C266.7,320,213,320,160,320C106.7,320,53,320,27,320L0,320Z"></path></svg>